<svg xmlns="http://www.w3.org/2000/svg" viewBox="0 0 353.1 512">
    <defs>
        <style>.a{fill:#707487;}.b{fill:#ffd782;}.c{fill:#b9785f;}.d{fill:#9b8273;}.e{fill:#876e64;}</style>
    </defs>
    <path class="a" d="M309,512H220.7A17.7,17.7,0,0,1,203,494.3V17.7A17.7,17.7,0,0,1,220.7,0H309a17.6,17.6,0,0,1,17.6,17.7V494.3A17.6,17.6,0,0,1,309,512Z" transform="translate(-79.4)" />
    <path class="b" d="M269,322.9l21.4-64.1a8.9,8.9,0,0,0,0-5.6L269,189.1a4.4,4.4,0,0,0-8.4,0l-21.3,64.1a8.9,8.9,0,0,0,0,5.6l21.3,64.1A4.4,4.4,0,0,0,269,322.9Z" transform="translate(-79.4)" />
    <rect class="b" x="123.6" y="35.3" width="123.6" height="17.66" />
    <rect class="b" x="123.6" y="70.6" width="123.6" height="17.65" />
    <rect class="b" x="123.6" y="423.7" width="123.6" height="17.65" />
    <rect class="b" x="123.6" y="459" width="123.6" height="17.65" />
    <path class="c" d="M414.9,512H344.3a17.7,17.7,0,0,1-17.7-17.7V70.6A17.6,17.6,0,0,1,344.3,53h70.6a17.7,17.7,0,0,1,17.7,17.6V494.3A17.7,17.7,0,0,1,414.9,512Z" transform="translate(-79.4)" />
    <path class="b" d="M383.8,349.4l21.3-64.1a8.9,8.9,0,0,0,0-5.6l-21.3-64.1a4.4,4.4,0,0,0-8.4,0L354,279.7a8.9,8.9,0,0,0,0,5.6l21.4,64.1A4.4,4.4,0,0,0,383.8,349.4Z" transform="translate(-79.4)" />
    <rect class="b" x="247.2" y="441.4" width="105.9" height="17.65" />
    <rect class="b" x="247.2" y="105.9" width="105.9" height="17.65" />
    <path class="d" d="M185.4,512H97.1a17.7,17.7,0,0,1-17.7-17.7V105.9A17.7,17.7,0,0,1,97.1,88.3h88.3A17.6,17.6,0,0,1,203,105.9V494.3A17.6,17.6,0,0,1,185.4,512Z" transform="translate(-79.4)" />
    <path class="e" d="M79.4,105.9V494.3A17.7,17.7,0,0,0,97.1,512V88.3A17.7,17.7,0,0,0,79.4,105.9Z" transform="translate(-79.4)" />
    <path class="b" d="M145.4,367l21.4-64.1a8.9,8.9,0,0,0,0-5.6l-21.4-64a4.3,4.3,0,0,0-8.3,0l-21.4,64a8.9,8.9,0,0,0,0,5.6L137.1,367A4.4,4.4,0,0,0,145.4,367Z" transform="translate(-79.4)" />
    <rect class="b" y="441.4" width="123.6" height="17.65" />
    <rect class="b" y="141.2" width="123.6" height="17.65" />
</svg>